<?xml version="1.0" encoding="UTF-8" standalone="no"?>
<!-- Created with Inkscape (http://www.inkscape.org/) -->

<svg
   xmlns:dc="http://purl.org/dc/elements/1.1/"
   xmlns:cc="http://creativecommons.org/ns#"
   xmlns:rdf="http://www.w3.org/1999/02/22-rdf-syntax-ns#"
   xmlns:svg="http://www.w3.org/2000/svg"
   xmlns="http://www.w3.org/2000/svg"
   xmlns:sodipodi="http://sodipodi.sourceforge.net/DTD/sodipodi-0.dtd"
   xmlns:inkscape="http://www.inkscape.org/namespaces/inkscape"
   width="210mm"
   height="297mm"
   viewBox="0 0 744.09448819 1052.3622047"
   id="svg6545"
   version="1.1"
   inkscape:version="0.91 r13725"
   sodipodi:docname="History.svg"
   inkscape:export-filename="D:\development\Projects\blockchain2\universal-payment\public\images\api\event.png"
   inkscape:export-xdpi="100"
   inkscape:export-ydpi="100">
  <defs
     id="defs6547" />
  <sodipodi:namedview
     id="base"
     pagecolor="#ffffff"
     bordercolor="#666666"
     borderopacity="1.0"
     inkscape:pageopacity="0.0"
     inkscape:pageshadow="2"
     inkscape:zoom="0.35"
     inkscape:cx="-667.85714"
     inkscape:cy="520"
     inkscape:document-units="px"
     inkscape:current-layer="layer1"
     showgrid="false"
     inkscape:window-width="1600"
     inkscape:window-height="838"
     inkscape:window-x="-8"
     inkscape:window-y="-8"
     inkscape:window-maximized="1" />
  <metadata
     id="metadata6550">
    <rdf:RDF>
      <cc:Work
         rdf:about="">
        <dc:format>image/svg+xml</dc:format>
        <dc:type
           rdf:resource="http://purl.org/dc/dcmitype/StillImage" />
        <dc:title />
      </cc:Work>
    </rdf:RDF>
  </metadata>
  <g
     inkscape:label="Calque 1"
     inkscape:groupmode="layer"
     id="layer1">
    <rect
       style="fill:#138275;fill-opacity:1;fill-rule:evenodd;stroke:none;stroke-width:0.2;stroke-linecap:butt;stroke-linejoin:miter;stroke-miterlimit:4;stroke-dasharray:none;stroke-opacity:1"
       id="rect9941"
       width="900"
       height="650"
       x="-64.285713"
       y="155.93364"
       inkscape:export-filename="D:\development\Projects\blockchain2\universal-payment\public\images\api\history.png"
       inkscape:export-xdpi="100"
       inkscape:export-ydpi="100" />
    <path
       d="m 602.70736,480.93364 c 0,119.8404 -97.14995,216.99035 -216.99035,216.99035 -119.84041,0 -216.9958,-97.14995 -216.9958,-216.99035 0,-119.84041 97.15539,-216.99036 216.9958,-216.99036 119.8404,0 216.99035,97.14995 216.99035,216.99036"
       style="fill:#ffffff;fill-opacity:1;fill-rule:nonzero;stroke:none"
       id="path4328"
       inkscape:connector-curvature="0"
       inkscape:export-filename="D:\development\Projects\blockchain2\universal-payment\public\images\api\history.png"
       inkscape:export-xdpi="100"
       inkscape:export-ydpi="100" />
    <path
       d="m 488.42593,471.09295 -0.1036,95.21827 -18.35913,-102.0635 c -1.55623,-5.61003 -7.88997,-5.2237 -7.88997,-5.2237 l -156.00909,0 0,-32.39238 182.36702,0 0,44.46131 -0.004,0 z m 9.97401,91.39844 0.0544,-145.87185 c -0.0261,-4.47823 -3.66747,-8.1185 -8.13482,-8.1185 l -102.89059,0 c -3.17231,-0.0762 -5.65357,-5.91475 -5.65357,-8.15659 l 0,-0.93047 c 0,-4.75575 -3.87424,-8.67352 -8.66263,-8.67352 l -54.75092,0 c -4.76662,0 -8.64087,3.91233 -8.64087,8.67352 l 0,0.93047 c 0,2.27449 -2.50302,8.19468 -5.75695,8.19468 l 0.0923,0 c -4.42926,0.0653 -8.02055,3.67291 -8.02055,8.11306 l 0.0348,42.2358 -17.4994,0 c 0,0 -7.74849,-0.41877 -5.01149,8.80411 l 18.46252,94.79929 c 0,4.77751 3.32467,8.63543 8.10218,8.63543 l 194.28902,0 c 4.77207,0 3.98852,-8.63543 3.98852,-8.63543"
       style="fill:#252a36;fill-opacity:1;fill-rule:nonzero;stroke:none"
       id="path4356"
       inkscape:connector-curvature="0"
       inkscape:export-filename="D:\development\Projects\blockchain2\universal-payment\public\images\api\history.png"
       inkscape:export-xdpi="100"
       inkscape:export-ydpi="100" />
  </g>
</svg>
