<?xml version="1.0" encoding="UTF-8" standalone="no"?>
<!-- Created with Inkscape (http://www.inkscape.org/) -->

<svg
   xmlns:dc="http://purl.org/dc/elements/1.1/"
   xmlns:cc="http://creativecommons.org/ns#"
   xmlns:rdf="http://www.w3.org/1999/02/22-rdf-syntax-ns#"
   xmlns:svg="http://www.w3.org/2000/svg"
   xmlns="http://www.w3.org/2000/svg"
   xmlns:sodipodi="http://sodipodi.sourceforge.net/DTD/sodipodi-0.dtd"
   xmlns:inkscape="http://www.inkscape.org/namespaces/inkscape"
   width="210mm"
   height="297mm"
   viewBox="0 0 744.09448819 1052.3622047"
   id="svg4719"
   version="1.1"
   inkscape:version="0.91 r13725"
   sodipodi:docname="statistics.svg"
   inkscape:export-filename="D:\development\Projects\blockchain2\universal-payment\public\images\extensions\statistics.png"
   inkscape:export-xdpi="100"
   inkscape:export-ydpi="100">
  <defs
     id="defs4721" />
  <sodipodi:namedview
     id="base"
     pagecolor="#ffffff"
     bordercolor="#666666"
     borderopacity="1.0"
     inkscape:pageopacity="0.0"
     inkscape:pageshadow="2"
     inkscape:zoom="0.35"
     inkscape:cx="-146.42857"
     inkscape:cy="520"
     inkscape:document-units="px"
     inkscape:current-layer="layer1"
     showgrid="false"
     inkscape:window-width="1600"
     inkscape:window-height="838"
     inkscape:window-x="-8"
     inkscape:window-y="-8"
     inkscape:window-maximized="1" />
  <metadata
     id="metadata4724">
    <rdf:RDF>
      <cc:Work
         rdf:about="">
        <dc:format>image/svg+xml</dc:format>
        <dc:type
           rdf:resource="http://purl.org/dc/dcmitype/StillImage" />
        <dc:title></dc:title>
      </cc:Work>
    </rdf:RDF>
  </metadata>
  <g
     inkscape:label="Calque 1"
     inkscape:groupmode="layer"
     id="layer1">
    <rect
       style="fill:#252a36;fill-opacity:1;fill-rule:evenodd;stroke:none;stroke-width:0.2;stroke-linecap:butt;stroke-linejoin:miter;stroke-miterlimit:4;stroke-dasharray:none;stroke-opacity:1"
       id="rect9941"
       width="900"
       height="650"
       x="-155.71428"
       y="84.505058"
       inkscape:export-filename="D:\development\Projects\blockchain2\universal-payment\public\images\extensions\download.png"
       inkscape:export-xdpi="100"
       inkscape:export-ydpi="100" />
    <g
       id="g5305"
       transform="matrix(4.353084,0,0,4.353084,-741.29188,-1427.9796)">
      <g
         transform="matrix(1.25,0,0,-1.25,284.13384,415.21935)"
         id="g4262">
        <path
           inkscape:connector-curvature="0"
           id="path4264"
           style="fill:#ffffff;fill-opacity:1;fill-rule:nonzero;stroke:none"
           d="m 2.8875535,-5.5133233 c 0,-22.0239997 -17.8540005,-39.8779997 -39.8780005,-39.8779997 -22.024,0 -39.879,17.854 -39.879,39.8779997 0,22.0240003 17.855,39.8780003 39.879,39.8780003 22.024,0 39.8780005,-17.854 39.8780005,-39.8780003" />
      </g>
      <g
         transform="matrix(1.25,0,0,-1.25,232.69459,440.91147)"
         id="g4266">
        <path
           inkscape:connector-curvature="0"
           id="path4268"
           style="fill:#00a198;fill-opacity:1;fill-rule:nonzero;stroke:none"
           d="m 0,0 0,16.567 c 0,2.162 -1.781,3.919 -3.974,3.919 -2.196,0 -3.975,-1.757 -3.975,-3.919 L -7.949,0 0,0 Z" />
      </g>
      <g
         transform="matrix(1.25,0,0,-1.25,245.81722,440.91147)"
         id="g4270">
        <path
           inkscape:connector-curvature="0"
           id="path4272"
           style="fill:#00a198;fill-opacity:1;fill-rule:nonzero;stroke:none"
           d="m 0,0 0,27.092 c 0,2.163 -1.777,3.917 -3.974,3.917 -2.196,0 -3.975,-1.754 -3.975,-3.917 L -7.949,0 0,0 Z" />
      </g>
      <g
         transform="matrix(1.25,0,0,-1.25,258.94335,440.91147)"
         id="g4274">
        <path
           inkscape:connector-curvature="0"
           id="path4276"
           style="fill:#00a198;fill-opacity:1;fill-rule:nonzero;stroke:none"
           d="m 0,0 0,37.186 c 0,2.164 -1.778,3.921 -3.973,3.921 -2.195,0 -3.978,-1.757 -3.978,-3.921 L -7.951,0 0,0 Z" />
      </g>
      <g
         transform="matrix(1.25,0,0,-1.25,219.56959,440.91147)"
         id="g4278">
        <path
           inkscape:connector-curvature="0"
           id="path4280"
           style="fill:#00a198;fill-opacity:1;fill-rule:nonzero;stroke:none"
           d="m 0,0 0,6.403 c 0,2.162 -1.779,3.918 -3.974,3.918 -2.195,0 -3.979,-1.756 -3.979,-3.918 L -7.953,0 0,0 Z" />
      </g>
    </g>
  </g>
</svg>
